# xmcd
#
# Track frame offsets:
#	150
#	14442
#	32210
#	48868
#	66060
#	82516
#	95280
#	108892
#	120332
#	143259
#	171050
#	183126
#	196469
#	216310
#
# Disc length: 3202 seconds
#
# Revision: 0
# Processed by: cddbd v1.4PL0 Copyright (c) Steve Scherf et al.
# Submitted via: dBpowerAMP V4.0
#
DISCID=a50c800e
DTITLE=Cabbage Heads - How Long Has This Been Going On?
DYEAR=2003
DGENRE=Blues
TTITLE0=634-5789
TTITLE1=The Letter
TTITLE2=Saturday in the Park
TTITLE3=Mr. Pitiful
TTITLE4=Have a Little Faith
TTITLE5=Vehicle
TTITLE6=Brick House
TTITLE7=I Feel Good
TTITLE8=Love You More Today
TTITLE9=Disco Inferno
TTITLE10=You Are So Beautiful
TTITLE11=Does Anybody Really Know What Time It Is?
TTITLE12=How Long
TTITLE13=Them Changes
EXTD=
EXTT0=
EXTT1=
EXTT2=
EXTT3=
EXTT4=
EXTT5=
EXTT6=
EXTT7=
EXTT8=
EXTT9=
EXTT10=
EXTT11=
EXTT12=
EXTT13=
PLAYORDER=
